<?xml version="1.0" encoding="utf-8"?>
<!-- Generator: Adobe Illustrator 25.2.3, SVG Export Plug-In . SVG Version: 6.00 Build 0)  -->
<svg version="1.1" id="Layer_1" xmlns="http://www.w3.org/2000/svg" xmlns:xlink="http://www.w3.org/1999/xlink" x="0px" y="0px"
	 viewBox="0 0 512 512" style="enable-background:new 0 0 512 512;" xml:space="preserve">
<style type="text/css">
	.st0{fill:#FFFFFF;enable-background:new    ;}
	.st1{opacity:0.6;fill:#DA9033;enable-background:new    ;}
	.st2{fill:#DA9033;}
	.st3{fill:#FFFFFF;}
</style>
<path class="st0" d="M480.3,343.4c16.2-21.1,28.2-44.8,31-74.1c0.1-0.5,0.1-0.8,0.1-0.8c0.4-4,0.6-8.2,0.6-12.5
	C512,114.8,397.2,0,256,0S0,114.8,0,256s114.8,256,256,256c44.4,0,76.6-20.5,104.8-46.3c0.1-0.1,0.3-0.3,0.4-0.4
	c0.9-0.8,1.8-1.7,2.7-2.5c0.3-0.3,0.6-0.6,0.9-0.9c0.8-0.7,1.5-1.4,2.3-2.2c0.5-0.5,0.9-0.9,1.4-1.4c0.3-0.3,0.7-0.6,1-0.9
	c8.2-7.9,16-16.2,23.8-24.4c6.4-6.7,12.9-13.5,19.5-20.1s13.3-13,20-19.4c15.7-15,31.6-30.2,45-47.1c0.6-0.8,1.2-1.5,1.8-2.3
	C479.9,343.9,480.1,343.6,480.3,343.4z"/>
<path class="st1" d="M480.3,343.4c16.2-21.1,28.2-44.8,31-74.1c0.1-0.5,0.1-0.8,0.1-0.8c0.4-4,0.6-8.2,0.6-12.5
	C512,114.8,397.2,0,256,0S0,114.8,0,256s114.8,256,256,256c44.4,0,76.6-20.5,104.8-46.3c0.1-0.1,0.3-0.3,0.4-0.4
	c0.9-0.8,1.8-1.7,2.7-2.5c0.3-0.3,0.6-0.6,0.9-0.9c0.8-0.7,1.5-1.4,2.3-2.2c0.5-0.5,0.9-0.9,1.4-1.4c0.3-0.3,0.7-0.6,1-0.9
	c8.2-7.9,16-16.2,23.8-24.4c6.4-6.7,12.9-13.5,19.5-20.1s13.3-13,20-19.4c15.7-15,31.6-30.2,45-47.1c0.6-0.8,1.2-1.5,1.8-2.3
	C479.9,343.9,480.1,343.6,480.3,343.4z"/>
<path class="st2" d="M469.3,256c0-117.6-95.7-213.3-213.3-213.3S42.7,138.4,42.7,256S138.4,469.3,256,469.3
	c13.7,0,27.4-1.3,40.7-3.9c0.2-0.8,0.5-1.7,0.7-2.5c0.1-0.3,0.1-0.6,0.2-0.9c0.1-0.6,0.3-1.1,0.4-1.7c0.1-0.4,0.2-0.8,0.3-1.2
	c0.1-0.5,0.2-1,0.3-1.6c0.1-0.5,0.2-0.9,0.3-1.4c0.1-0.5,0.2-1,0.3-1.5c0.1-0.5,0.2-1,0.3-1.5c0.1-0.5,0.2-1,0.3-1.5
	c0.1-0.5,0.2-1.1,0.3-1.7c0.1-0.5,0.2-1,0.3-1.5c0.1-0.6,0.2-1.2,0.3-1.9c0.1-0.5,0.2-0.9,0.2-1.4c0.1-0.8,0.3-1.6,0.4-2.4
	c0-0.1,0-0.1,0-0.2l0,0c0.1-0.5,0.2-1,0.3-1.6c4.6-28.5,10.4-64,43-96.6s68.1-38.4,96.6-43c0.5-0.1,1-0.2,1.6-0.3l0,0
	c0.1,0,0.1,0,0.2,0c0.8-0.1,1.6-0.3,2.4-0.4c0.5-0.1,0.9-0.2,1.4-0.2c0.6-0.1,1.3-0.2,1.9-0.3c0.5-0.1,1-0.2,1.5-0.3
	c0.5-0.1,1.1-0.2,1.6-0.3c0.5-0.1,1-0.2,1.5-0.3c0.5-0.1,1-0.2,1.5-0.3c0.5-0.1,1-0.2,1.6-0.3c0.4-0.1,0.9-0.2,1.3-0.3
	c0.5-0.1,1.1-0.2,1.6-0.3c0.4-0.1,0.8-0.2,1.1-0.2c0.6-0.1,1.2-0.3,1.8-0.4c0.3-0.1,0.6-0.1,0.9-0.2c0.8-0.2,1.7-0.4,2.5-0.7l0,0
	l0,0l0,0C468,283.4,469.3,269.7,469.3,256z"/>
<g>
	<path class="st3" d="M109.5,257.5l29.2,74.6c2,5.1,7.8,7.7,13,5.7c5.1-2,7.7-7.8,5.7-13L139,278.2l59.6,36.9
		c3.7,2.3,8.4,1.9,11.7-0.8c1.2-1,2.2-2.3,2.8-3.7c1-2.4,1.2-5.1,0.1-7.7l-29.1-74.5c-2-5.1-7.8-7.7-13-5.7c-5.1,2-7.7,7.8-5.7,13
		l18.2,46.6l-59.5-36.9c-3.7-2.3-8.4-1.9-11.7,0.8C109.1,248.9,107.9,253.5,109.5,257.5z"/>
	<path class="st3" d="M231.9,295.6c2,5.1,7.8,7.7,13,5.7l37.3-14.6c2.6-1,4.5-3,5.5-5.3s1.2-5.1,0.1-7.7c-2-5.1-7.8-7.7-13-5.7
		l-28,10.9l-7.3-18.6l28-10.9c2.6-1,4.5-3,5.5-5.3s1.1-5.1,0.1-7.7c-2-5.1-7.8-7.7-13-5.7l-28,10.9l-7.3-18.6l28-10.9
		c5.1-2,7.7-7.8,5.7-13c-2-5.1-7.8-7.7-13-5.7L208.2,208c-5.1,2-7.7,7.8-5.7,13L231.9,295.6z"/>
	<path class="st3" d="M278.4,194.1l47.8,67.3c2.6,3.6,7.2,5.1,11.4,3.7c4.2-1.5,6.9-5.6,6.7-10l-1.7-33.2l21.3,25.6
		c2.8,3.4,7.6,4.6,11.7,2.8c2.4-1,4.2-2.9,5.2-5.2c0.7-1.6,1-3.4,0.8-5.3l-10.5-81.9c-0.7-5.5-5.7-9.4-11.2-8.7s-9.4,5.8-8.7,11.2
		l6.1,47.8L338.8,186c-2.8-3.3-7.3-4.5-11.3-2.9c-4,1.5-6.5,5.5-6.4,9.8l1.5,28.9l-27.9-39.2c-3.2-4.5-9.5-5.6-14-2.4
		C276.3,183.3,275.2,189.5,278.4,194.1z"/>
</g>
</svg>
